<?xml version="1.0" standalone="no"?>
<!DOCTYPE svg PUBLIC "-//W3C//DTD SVG 20010904//EN"
        "http://www.w3.org/TR/2001/REC-SVG-20010904/DTD/svg10.dtd">
<svg version="1.0" xmlns="http://www.w3.org/2000/svg"
     width="35px" height="35px" viewBox="0 0 1024.000000 1024.000000"
     preserveAspectRatio="xMidYMid meet">

    <g transform="translate(0.000000,1000.000000) scale(0.100000,-0.100000)"
       fill="orange" stroke="none">
        <path d="M4995 8811 c-50 -30 -113 -109 -136 -170 -17 -45 -20 -72 -17 -136 5
-91 32 -156 98 -235 77 -92 80 -145 15 -218 -54 -60 -59 -96 -19 -136 53 -53
127 -21 197 86 26 38 49 85 53 104 15 82 -15 168 -100 280 -86 115 -85 191 5
290 31 34 48 62 45 71 -3 8 -6 21 -6 29 0 17 -57 54 -85 54 -11 0 -34 -8 -50
-19z"/>
        <path d="M4442 8791 c-59 -43 -115 -160 -120 -252 -5 -88 15 -149 79 -234 56
-74 79 -121 79 -162 0 -27 -12 -49 -65 -122 -39 -53 -30 -98 25 -126 44 -23
58 -19 115 29 74 64 110 145 110 246 -1 86 -11 112 -86 207 -54 67 -79 118
-79 158 0 36 35 102 81 152 22 24 39 48 39 54 0 6 -15 26 -34 45 -44 44 -87
46 -144 5z"/>
        <path d="M5466 8780 c-24 -22 -58 -68 -77 -102 -32 -60 -34 -68 -34 -163 0
-93 2 -104 30 -152 17 -28 50 -77 74 -108 38 -48 45 -64 45 -104 1 -42 -4 -53
-41 -96 -36 -40 -43 -54 -43 -91 0 -34 5 -47 26 -63 47 -37 81 -28 145 38 45
48 60 73 79 130 37 115 18 190 -76 311 -52 67 -64 97 -64 160 0 41 6 56 38 97
21 26 46 54 55 62 46 37 -7 121 -76 121 -30 0 -46 -8 -81 -40z"/>
        <path d="M3819 7661 c-47 -15 -69 -32 -96 -74 -25 -39 -27 -53 -34 -192 -4
-82 -8 -238 -8 -345 -1 -291 27 -433 127 -632 70 -138 130 -223 217 -307 41
-41 74 -79 72 -85 -2 -8 -107 -13 -333 -16 -337 -6 -364 -9 -408 -48 -36 -32
-56 -93 -56 -172 0 -169 67 -326 196 -457 68 -69 95 -89 170 -124 69 -33 84
-44 69 -49 -17 -6 -16 -7 7 -12 15 -3 25 -2 23 3 -3 4 8 1 24 -7 87 -43 118
-44 1244 -46 l1072 -1 82 31 c45 17 90 36 100 41 10 6 41 20 68 32 28 12 73
37 100 57 62 44 155 133 155 148 0 7 16 35 35 64 49 73 87 215 87 331 0 115
-18 154 -88 189 -49 25 -51 25 -399 31 -192 3 -351 6 -353 7 -2 1 34 44 80 96
109 123 201 257 248 359 l18 39 103 2 c124 3 198 29 280 98 151 127 224 301
199 475 -18 130 -76 228 -185 310 -76 58 -107 71 -233 97 l-104 21 -13 38
c-17 51 -50 85 -94 97 -43 12 -2333 12 -2372 1z m2104 -297 c5 -60 5 -199 1
-309 -4 -110 -8 -235 -8 -278 l-1 -77 -22 47 c-127 279 -135 288 -226 280 -68
-6 -64 -2 -134 -140 -81 -161 -133 -282 -133 -310 0 -23 5 -27 55 -37 74 -15
87 -11 108 33 l19 37 96 0 97 0 15 -32 c18 -38 55 -51 119 -42 l44 6 -6 51
c-3 29 -9 61 -12 72 -7 18 -6 18 9 -2 21 -28 24 -109 4 -129 -9 -10 -43 -17
-91 -21 l-76 -6 -34 -51 c-19 -28 -53 -70 -76 -94 -22 -23 -41 -46 -41 -51 0
-5 -21 -27 -47 -48 -26 -21 -56 -46 -66 -56 -10 -10 -25 -16 -33 -13 -9 3 -12
1 -9 -4 3 -6 2 -10 -4 -10 -5 0 -46 -24 -90 -54 -67 -46 -90 -55 -138 -60 -32
-4 -85 -11 -118 -17 -33 -6 -184 -11 -335 -12 -293 -2 -301 -1 -425 53 -77 33
-185 126 -266 227 -107 136 -178 309 -209 513 -10 71 -7 504 6 605 l4 40 1008
-1 1007 -1 8 -109z m195 29 l-2 -78 -3 72 c-4 69 -5 72 -31 76 -25 4 -24 4 6
6 l32 1 -2 -77z m326 -97 c53 -22 111 -81 137 -139 31 -67 34 -207 6 -278 -30
-78 -115 -141 -207 -154 -67 -8 -76 1 -59 66 10 39 14 120 13 287 l0 232 38 0
c21 0 54 -6 72 -14z m-741 -491 c29 -60 22 -72 -38 -65 -11 1 -21 3 -22 4 -6
5 29 96 36 96 4 0 15 -16 24 -35z m394 -87 c-3 -8 -6 -5 -6 6 -1 11 2 17 5 13
3 -3 4 -12 1 -19z m283 -897 c48 -5 67 -9 42 -9 l-42 -2 -39 -82 c-47 -98 -66
-118 -189 -191 -188 -113 -255 -123 -780 -118 -128 1 -236 0 -240 -3 -6 -4
-584 -5 -1255 -4 -106 0 -124 -14 -57 -46 22 -11 38 -22 35 -25 -3 -3 -49 18
-103 45 -83 43 -103 59 -144 111 -25 34 -56 88 -68 120 -26 69 -47 179 -36
190 4 4 582 10 1284 13 702 3 1329 6 1392 7 63 0 153 -2 200 -6z m-2463 -497
c-3 -3 -12 -4 -19 -1 -8 3 -5 6 6 6 11 1 17 -2 13 -5z"/>
        <path d="M4378 7150 c-69 -13 -68 -11 -68 -227 0 -115 -4 -202 -10 -214 -14
-24 -47 -24 -85 1 -44 29 -87 26 -124 -9 -40 -38 -40 -69 2 -108 52 -50 105
-73 168 -73 47 0 65 5 105 33 27 17 63 53 80 78 28 42 31 56 37 154 11 180 9
341 -5 352 -20 16 -60 21 -100 13z"/>
        <path d="M4092 7015 c0 -16 2 -22 5 -12 2 9 2 23 0 30 -3 6 -5 -1 -5 -18z"/>
        <path d="M4983 7023 c-30 -3 -43 -9 -43 -19 0 -18 73 -199 134 -334 24 -52 46
-103 49 -112 5 -15 19 -18 77 -18 l70 0 27 43 c34 53 122 233 153 312 13 33
30 71 37 85 7 14 9 28 3 34 -4 4 -43 9 -85 10 l-76 1 -53 -124 c-29 -69 -57
-126 -62 -128 -5 -1 -31 55 -59 125 l-50 127 -40 1 c-22 1 -59 -1 -82 -3z"/>
        <path d="M4615 6903 c-84 -174 -125 -268 -131 -302 -5 -25 -2 -31 24 -45 63
-33 126 -17 145 37 5 13 18 17 59 17 29 0 69 3 90 6 34 6 38 4 62 -35 25 -39
29 -41 75 -41 68 0 81 7 81 41 0 49 -107 317 -154 388 l-31 46 -82 3 -82 3
-56 -118z m169 -155 c-8 -13 -74 -9 -74 4 0 7 8 32 17 57 l17 45 22 -49 c13
-27 21 -52 18 -57z"/>
        <path d="M5564 6318 c-3 -5 6 -8 20 -8 14 0 28 4 31 10 4 6 -5 9 -20 8 -15 -2
-29 -6 -31 -10z"/>
        <path d="M6425 5130 c-16 -7 -13 -9 18 -9 20 -1 37 4 37 9 0 12 -27 12 -55 0z"/>
        <path d="M3303 5109 c-18 -12 -33 -23 -33 -26 0 -3 12 3 27 13 15 9 41 21 58
25 27 6 28 7 5 8 -14 0 -40 -9 -57 -20z"/>

        <path d="M3618 4953 c7 -3 16 -2 19 1 4 3 -2 6 -13 5 -11 0 -14 -3 -6 -6z"/>
        <path d="M3320 4591 c-13 -4 -37 -25 -52 -46 l-28 -40 -2 -925 c-2 -700 1
-930 10 -946 6 -12 25 -34 42 -48 l31 -26 182 1 c203 1 235 9 265 63 15 28 17
78 19 476 2 245 6 447 10 449 14 7 140 -253 261 -539 139 -327 176 -391 252
-431 50 -27 116 -24 179 7 65 33 93 68 135 169 35 84 176 400 243 545 22 47
51 110 65 140 14 30 32 72 39 93 7 20 18 37 24 37 8 0 11 -37 8 -127 -2 -71 0
-280 4 -465 l8 -336 25 -27 c46 -50 72 -55 262 -49 95 3 185 10 201 16 15 6
37 24 49 41 l21 29 0 934 1 934 -28 29 c-48 50 -62 52 -344 49 l-262 -3 -30
-30 c-19 -19 -55 -86 -91 -170 -34 -77 -76 -174 -94 -215 -18 -41 -58 -129
-90 -195 -59 -125 -130 -284 -185 -418 -22 -53 -37 -77 -47 -75 -8 2 -34 48
-57 103 -49 116 -154 341 -172 370 -7 11 -35 70 -62 130 -27 61 -58 130 -69
155 -11 25 -37 83 -58 130 -66 150 -76 169 -107 195 l-30 25 -251 -1 c-139 -1
-263 -4 -277 -8z"/>
        <path d="M6284 4590 c-12 -4 -31 -21 -43 -36 l-21 -27 0 -946 c0 -534 -5 -989
-10 -1046 -13 -134 -32 -185 -87 -240 -74 -74 -112 -89 -223 -89 -109 0 -157
13 -219 60 -26 20 -49 31 -56 26 -7 -4 -31 -30 -53 -58 -35 -45 -49 -70 -57
-108 -1 -6 -7 -24 -13 -39 -7 -16 -12 -34 -12 -41 0 -7 -11 -22 -25 -34 -13
-12 -34 -40 -45 -62 -18 -36 -20 -46 -9 -78 6 -20 19 -45 27 -55 34 -39 158
-111 236 -138 79 -28 85 -29 266 -26 206 4 256 13 376 72 102 50 184 113 247
192 131 163 210 354 225 539 5 60 8 548 8 1084 -1 923 -2 976 -19 1002 -35 52
-67 58 -279 57 -106 0 -203 -4 -214 -9z"/>
        <path d="M4913 2170 c-19 -44 -39 -77 -44 -75 -4 3 -15 29 -25 58 -21 66 -40
87 -76 87 -23 0 -28 -4 -28 -25 0 -14 8 -42 19 -63 10 -20 28 -67 40 -103 24
-74 48 -102 82 -97 18 2 28 16 43 53 10 28 36 87 58 133 42 90 41 112 -9 112
-20 0 -29 -12 -60 -80z"/>
        <path d="M5122 2241 c-14 -9 -74 -131 -102 -209 -20 -54 -21 -65 -9 -73 30
-19 55 -10 72 26 15 31 21 35 57 35 36 0 43 -4 61 -35 32 -54 79 -42 79 20 0
37 -61 179 -90 210 -24 25 -52 36 -68 26z m34 -118 c19 -25 17 -43 -3 -43 -33
0 -46 15 -34 39 14 26 20 26 37 4z"/>
        <path d="M3275 2217 c-22 -34 -26 -244 -5 -257 38 -24 60 -4 68 61 l7 54 23
-37 c13 -21 30 -38 37 -38 7 0 29 19 49 43 l36 42 0 -67 c0 -72 8 -81 51 -58
17 10 19 22 19 128 0 122 -3 134 -33 145 -28 10 -53 -8 -83 -60 -27 -45 -28
-45 -43 -25 -9 11 -29 36 -44 56 -32 41 -60 46 -82 13z"/>
        <path d="M3796 2224 c-3 -9 -6 -71 -6 -139 0 -115 1 -124 20 -130 44 -14 59 2
62 66 l3 61 65 -66 c36 -36 70 -66 77 -66 24 0 33 41 33 154 0 104 -2 116 -19
126 -11 5 -29 10 -40 10 -18 0 -21 -6 -21 -48 0 -27 -3 -52 -7 -55 -3 -4 -32
18 -64 48 -58 55 -92 68 -103 39z"/>
        <path d="M4367 2139 c-4 -56 -9 -104 -11 -107 -3 -2 -24 3 -46 12 -49 19 -60
15 -60 -24 0 -36 41 -70 84 -70 24 0 42 10 70 39 l38 39 1 103 2 104 -36 3
-36 3 -6 -102z"/>
        <path d="M4531 2138 c-27 -57 -53 -120 -56 -140 -7 -37 -6 -38 22 -38 19 0 37
9 51 25 17 19 32 25 62 25 34 0 42 -4 55 -30 16 -31 45 -39 74 -21 11 7 7 27
-25 107 -44 112 -85 174 -114 174 -15 0 -31 -24 -69 -102z m86 -28 c11 -28 10
-30 -13 -30 -24 0 -30 14 -18 44 9 24 18 19 31 -14z"/>
        <path d="M3634 2217 c-2 -7 -3 -67 -2 -132 l3 -119 26 -7 c46 -12 51 0 57 126
4 107 3 119 -13 132 -24 17 -64 17 -71 0z"/>
        <path d="M4120 2096 c0 -84 4 -137 11 -141 5 -4 21 -4 35 -1 l25 7 -3 132 -3
132 -32 3 -33 3 0 -135z"/>
    </g>
</svg>